<svg width="131" height="26" viewBox="0 0 131 26" fill="none" xmlns="http://www.w3.org/2000/svg">
<path d="M17.2216 0.647727H20.2159V17.0199C20.2159 18.7102 19.8175 20.2195 19.0206 21.5476C18.2318 22.8677 17.117 23.91 15.6761 24.6747C14.2353 25.4313 12.545 25.8097 10.6051 25.8097C8.66525 25.8097 6.97491 25.4313 5.53409 24.6747C4.09328 23.91 2.97443 22.8677 2.17756 21.5476C1.38873 20.2195 0.994318 18.7102 0.994318 17.0199V0.647727H3.98864V16.7784C3.98864 17.9858 4.25426 19.0604 4.78551 20.0021C5.31676 20.9358 6.07339 21.6723 7.0554 22.2116C8.04546 22.7429 9.22869 23.0085 10.6051 23.0085C11.9815 23.0085 13.1648 22.7429 14.1548 22.2116C15.1449 21.6723 15.9015 20.9358 16.4247 20.0021C16.956 19.0604 17.2216 17.9858 17.2216 16.7784V0.647727ZM26.1955 25.375V0.647727H34.5506C36.4824 0.647727 38.0681 0.977745 39.3077 1.63778C40.5473 2.28977 41.4649 3.18726 42.0605 4.33026C42.6562 5.47325 42.954 6.7732 42.954 8.23011C42.954 9.68703 42.6562 10.9789 42.0605 12.1058C41.4649 13.2327 40.5513 14.1181 39.3198 14.7621C38.0882 15.398 36.5146 15.7159 34.5989 15.7159H27.8375V13.0114H34.5023C35.8224 13.0114 36.8849 12.8182 37.6898 12.4318C38.5028 12.0455 39.0904 11.4981 39.4526 10.7898C39.8229 10.0734 40.008 9.22017 40.008 8.23011C40.008 7.24006 39.8229 6.37476 39.4526 5.63423C39.0823 4.8937 38.4907 4.32221 37.6777 3.91974C36.8648 3.50923 35.7902 3.30398 34.454 3.30398H29.1898V25.375H26.1955ZM37.8347 14.267L43.9199 25.375H40.4427L34.454 14.267H37.8347ZM67.5515 0.647727V25.375H64.6538L51.1793 5.96023H50.9379V25.375H47.9435V0.647727H50.8413L64.364 20.1108H64.6055V0.647727H67.5515ZM73.5431 25.375V0.647727H88.4664V3.30398H76.5375V11.6591H87.6937V14.3153H76.5375V22.7188H88.6596V25.375H73.5431ZM93.8635 25.375V0.647727H108.69V3.30398H96.8578V11.6591H107.579V14.3153H96.8578V25.375H93.8635ZM113.819 25.375V0.647727H122.174C124.114 0.647727 125.699 0.997868 126.931 1.69815C128.17 2.39039 129.088 3.32812 129.684 4.51136C130.279 5.6946 130.577 7.01468 130.577 8.47159C130.577 9.9285 130.279 11.2526 129.684 12.4439C129.096 13.6352 128.186 14.585 126.955 15.2933C125.723 15.9936 124.146 16.3438 122.222 16.3438H116.233V13.6875H122.125C123.453 13.6875 124.52 13.4581 125.325 12.9993C126.13 12.5405 126.713 11.9207 127.076 11.1399C127.446 10.3511 127.631 9.46165 127.631 8.47159C127.631 7.48153 127.446 6.59612 127.076 5.81534C126.713 5.03456 126.126 4.42282 125.313 3.98011C124.5 3.52936 123.421 3.30398 122.077 3.30398H116.813V25.375H113.819Z" fill="black"/>
</svg>
