<svg width="31" height="31" viewBox="0 0 31 31" fill="none" xmlns="http://www.w3.org/2000/svg">
<circle cx="15.2503" cy="15.5" r="15" fill="#2DB475"/>
<path fill-rule="evenodd" clip-rule="evenodd" d="M19.924 10.0808C18.5844 8.7397 16.8029 8.00079 14.905 8C10.9942 8 7.8113 11.1828 7.80973 15.0947C7.8092 16.3452 8.13588 17.5659 8.75681 18.6419L7.75021 22.3185L11.5115 21.3318C12.5479 21.8972 13.7147 22.1951 14.9021 22.1955H14.9051C18.8155 22.1955 21.9987 19.0124 22.0002 15.1004C22.001 13.2044 21.2637 11.4219 19.924 10.0808ZM14.905 20.9972H14.9026C13.8444 20.9968 12.8066 20.7124 11.901 20.1752L11.6858 20.0473L9.45377 20.6329L10.0495 18.4567L9.90927 18.2336C9.31892 17.2946 9.00719 16.2094 9.00772 15.0951C9.00894 11.8436 11.6545 9.19834 14.9074 9.19834C16.4826 9.19886 17.9633 9.81306 19.0766 10.9278C20.19 12.0425 20.8028 13.5241 20.8023 15.0999C20.8009 18.3516 18.1555 20.9972 14.905 20.9972ZM18.1398 16.5804C17.9626 16.4917 17.0909 16.0629 16.9283 16.0037C16.766 15.9445 16.6476 15.915 16.5296 16.0924C16.4113 16.2699 16.0716 16.6692 15.9682 16.7875C15.8647 16.9058 15.7614 16.9207 15.5841 16.8319C15.4067 16.7432 14.8355 16.5559 14.1583 15.9519C13.6313 15.4818 13.2756 14.9013 13.1721 14.7239C13.0688 14.5463 13.1712 14.4596 13.2499 14.3621C13.4418 14.1237 13.634 13.8739 13.693 13.7556C13.7522 13.6373 13.7226 13.5337 13.6782 13.445C13.634 13.3563 13.2794 12.4837 13.1317 12.1286C12.9877 11.7831 12.8417 11.8297 12.7328 11.8243C12.6295 11.8192 12.5112 11.8181 12.393 11.8181C12.2748 11.8181 12.0827 11.8624 11.9202 12.04C11.7577 12.2175 11.2998 12.6464 11.2998 13.519C11.2998 14.3916 11.935 15.2346 12.0237 15.3529C12.1123 15.4713 13.2738 17.2619 15.0522 18.0298C15.4752 18.2126 15.8053 18.3216 16.0629 18.4033C16.4876 18.5382 16.874 18.5192 17.1795 18.4736C17.5202 18.4226 18.2283 18.0446 18.3762 17.6306C18.5239 17.2164 18.5239 16.8615 18.4795 16.7875C18.4353 16.7135 18.317 16.6692 18.1398 16.5804Z" fill="white"/>
</svg>
