<svg width="30" height="31" viewBox="0 0 30 31" fill="none" xmlns="http://www.w3.org/2000/svg">
<path d="M30 15.5C30 23.7843 23.2843 30.5 15 30.5C6.71573 30.5 0 23.7843 0 15.5C0 7.21573 6.71573 0.5 15 0.5C23.2843 0.5 30 7.21573 30 15.5Z" fill="#168FC0"/>
<g clip-path="url(#clip0_1204_426)">
<mask id="mask0_1204_426" style="mask-type:luminance" maskUnits="userSpaceOnUse" x="6" y="8" width="16" height="15">
<path d="M6.74969 8H21.7497V23H6.74969V8Z" fill="white"/>
</mask>
<g mask="url(#mask0_1204_426)">
<path fill-rule="evenodd" clip-rule="evenodd" d="M18.2369 20.8421L15.5596 18.6863C15.3901 18.5498 15.1464 18.5579 14.9863 18.7052L13.0787 20.4616C13.0787 20.4616 13.0787 20.4616 13.0787 20.4616C12.9051 20.6214 12.7746 20.6267 12.7103 20.6106C12.6461 20.5946 12.5334 20.5285 12.4555 20.3057L10.9561 16.018C10.909 15.8833 10.7994 15.7798 10.6622 15.7406L7.82608 14.929L20.5189 10.0838C20.5189 10.0838 20.5189 10.0838 20.5189 10.0838C20.6344 10.0397 20.7165 10.0315 20.7663 10.035C20.8132 10.0383 20.8288 10.0511 20.8319 10.0537C20.8349 10.0563 20.8501 10.0696 20.861 10.1153C20.8726 10.1638 20.878 10.2461 20.8535 10.3673L18.7731 20.6397C18.7251 20.8766 18.6257 20.9414 18.5842 20.9568C18.543 20.9722 18.4262 20.9879 18.2369 20.8421ZM18.8903 21.7807C19.298 21.6293 19.5457 21.2528 19.6345 20.8142L21.7149 10.5418C21.8006 10.1185 21.7364 9.66819 21.4001 9.38315C21.0637 9.09813 20.609 9.10865 20.2055 9.26265L7.50864 14.1094C7.50864 14.1094 7.50865 14.1094 7.50864 14.1094C7.31837 14.1821 7.14279 14.276 7.00796 14.3996C6.87314 14.5232 6.74296 14.7131 6.74997 14.9597C6.75698 15.2064 6.89771 15.3885 7.03931 15.5043C7.18092 15.6201 7.36152 15.7039 7.5556 15.7656L7.56788 15.7695L10.2016 16.5229L11.6259 20.5958C11.6259 20.5958 11.6259 20.5958 11.6259 20.5958C11.7755 21.0238 12.0771 21.3582 12.497 21.4633C12.917 21.5683 13.3405 21.4153 13.674 21.1082L15.3032 19.6082L17.6953 21.5345C18.049 21.8088 18.4825 21.9322 18.8903 21.7807Z" fill="white"/>
<path fill-rule="evenodd" clip-rule="evenodd" d="M12.3477 21.3855C12.5833 21.4437 12.8215 21.2998 12.8797 21.0642L13.7191 17.6646L18.5407 12.5413C18.6872 12.3857 18.7004 12.1472 18.5721 11.9763C18.4438 11.8054 18.2111 11.7516 18.0207 11.8488L10.3798 15.7524C10.1637 15.8628 10.078 16.1275 10.1884 16.3437C10.2989 16.5598 10.5636 16.6455 10.7797 16.5351L16.1639 13.7844L13 17.1462C12.9483 17.2012 12.9115 17.2687 12.8934 17.342L12.0264 20.8535C11.9682 21.0892 12.1121 21.3273 12.3477 21.3855Z" fill="white"/>
<path fill-rule="evenodd" clip-rule="evenodd" d="M18.2841 21.4436C18.4364 21.2545 18.4065 20.9779 18.2175 20.8257L13.6191 17.1229C13.43 16.9707 13.1534 17.0006 13.0012 17.1896C12.849 17.3786 12.8788 17.6553 13.0678 17.8075L17.6663 21.5102C17.8553 21.6625 18.1319 21.6326 18.2841 21.4436Z" fill="white"/>
</g>
</g>
<defs>
<clipPath id="clip0_1204_426">
<rect width="15" height="15" fill="white" transform="translate(6.74985 8)"/>
</clipPath>
</defs>
</svg>
